# Blender v2.93.1 OBJ File: 'cube.blend'
# www.blender.org
mtllib cube.mtl
o Cube
v 0.948712 -0.051288 0.015202
v 0.948712 -0.015202 0.051288
v 0.984798 -0.051288 0.051288
v 0.948712 -0.984798 0.051288
v 0.948712 -0.948712 0.015202
v 0.984798 -0.948712 0.051288
v 0.984798 -0.051288 0.948712
v 0.948712 -0.015202 0.948712
v 0.948712 -0.051288 0.984798
v 0.984798 -0.948712 0.948712
v 0.948712 -0.948712 0.984798
v 0.948712 -0.984798 0.948712
v 0.051288 -0.051288 0.015202
v 0.015202 -0.051288 0.051288
v 0.051288 -0.015202 0.051288
v 0.015202 -0.948712 0.051288
v 0.051288 -0.948712 0.015202
v 0.051288 -0.984798 0.051288
v 0.015202 -0.051288 0.948712
v 0.051288 -0.051288 0.984798
v 0.051288 -0.015202 0.948712
v 0.051288 -0.984798 0.948712
v 0.051288 -0.948712 0.984798
v 0.015202 -0.948712 0.948712
v 0.022912 -1.000000 0.022912
v 0.022912 -1.000000 0.977088
v 0.000000 -0.977088 0.977088
v 0.000000 -0.977088 0.022912
v 0.977088 -1.000000 0.022912
v 0.022912 -0.977088 0.000000
v 0.977088 -0.977088 0.000000
v 1.000000 -0.022912 0.022912
v 1.000000 -0.977088 0.022912
v 0.977088 -0.022912 0.000000
v 0.022912 -0.977088 1.000000
v 0.022912 -0.022912 1.000000
v 0.000000 -0.022912 0.977088
v 0.977088 -0.022912 1.000000
v 0.977088 -0.977088 1.000000
v 1.000000 -0.977088 0.977088
v 1.000000 -0.022912 0.977088
v 0.022912 -0.022912 0.000000
v 0.000000 -0.022912 0.022912
v 0.977088 0.000000 0.977088
v 0.022912 0.000000 0.977088
v 0.977088 0.000000 0.022912
v 0.977088 -1.000000 0.977088
v 0.022912 0.000000 0.022912
vt 0.365696 0.509304
vt 0.134304 0.740696
vt 0.134304 0.509304
vt 0.615696 0.009304
vt 0.384304 0.240696
vt 0.384304 0.009304
vt 0.615696 0.759304
vt 0.384304 0.990696
vt 0.384304 0.759304
vt 0.865696 0.509304
vt 0.634304 0.740696
vt 0.634304 0.509304
vt 0.615696 0.509304
vt 0.384304 0.740696
vt 0.384304 0.509304
vt 0.619272 0.494272
vt 0.625000 0.494272
vt 0.619272 0.500000
vt 0.369272 0.505728
vt 0.369272 0.500000
vt 0.375000 0.505728
vt 0.619272 0.744272
vt 0.625000 0.744272
vt 0.619272 0.750000
vt 0.380728 0.750000
vt 0.375000 0.755728
vt 0.375000 0.755728
vt 0.619272 0.250000
vt 0.619272 0.250000
vt 0.625000 0.244272
vt 0.380728 0.244272
vt 0.380728 0.250000
vt 0.375000 0.244272
vt 0.619272 0.005728
vt 0.619272 0.000000
vt 0.625000 0.005728
vt 0.130728 0.744272
vt 0.130728 0.750000
vt 0.125000 0.744272
vt 0.125000 0.505728
vt 0.130728 0.505728
vt 0.380728 0.505728
vt 0.619272 0.505728
vt 0.380728 0.005728
vt 0.380728 0.000000
vt 0.380728 0.755728
vt 0.619272 0.755728
vt 0.380728 0.255728
vt 0.619272 0.244272
vt 0.619272 0.255728
vt 0.625000 0.994272
vt 0.625000 0.755728
vt 0.630728 0.744272
vt 0.630728 0.505728
vt 0.369272 0.744272
vt 0.625000 0.255728
vt 0.380728 0.744272
vt 0.615696 0.259304
vt 0.384304 0.490696
vt 0.384304 0.259304
vt 0.380728 0.494272
vt 0.615696 0.490696
vt 0.615696 0.990696
vt 0.380728 0.994272
vt 0.615696 0.740696
vt 0.615696 0.240696
vt 0.865696 0.740696
vt 0.619272 0.994272
vt 0.869272 0.744272
vt 0.869272 0.505728
vt 0.365696 0.740696
vt 0.130728 0.500000
vt 0.369272 0.750000
vn 0.0000 -1.0000 0.0000
vn -1.0000 0.0000 0.0000
vn 0.0000 0.0000 1.0000
vn 0.0000 1.0000 0.0000
vn 1.0000 0.0000 0.0000
vn 0.5774 0.5773 -0.5774
vn 0.5774 -0.5773 -0.5773
vn 0.5773 0.5773 0.5774
vn 0.5774 -0.5774 0.5774
vn -0.5774 0.5774 -0.5774
vn -0.5774 -0.5774 -0.5773
vn -0.5773 0.5774 0.5774
vn -0.5773 -0.5774 0.5773
vn -0.7071 -0.7071 0.0000
vn 0.0000 -0.7071 -0.7071
vn 0.7071 0.0000 -0.7071
vn -0.7071 0.0000 0.7071
vn 0.7071 0.0000 0.7071
vn -0.7071 0.0000 -0.7071
vn 0.0000 0.7071 0.7071
vn 0.7071 0.7071 0.0000
vn 0.0000 -0.7071 0.7071
vn -0.7071 0.7071 0.0000
vn 0.0000 0.7071 -0.7071
vn 0.7071 -0.7071 0.0000
vn 0.0000 0.0000 -1.0000
vn 0.4722 -0.8815 0.0000
vn -0.8815 0.4722 0.0000
vn 0.0000 -0.8815 0.4722
vn 0.0000 0.4722 -0.8815
vn 0.8815 0.0000 0.4722
vn -0.4722 0.0000 -0.8815
vn 0.4722 0.0000 0.8815
vn -0.8815 0.0000 -0.4722
vn -0.4722 0.0000 0.8815
vn 0.8815 0.0000 -0.4722
vn 0.4722 0.0000 -0.8815
vn -0.8815 0.0000 0.4722
vn 0.0000 0.8815 -0.4722
vn 0.0000 -0.4722 0.8815
vn -0.4722 0.8815 0.0000
vn 0.8815 -0.4722 0.0000
vn 0.0000 -0.8815 -0.4722
vn 0.0000 0.4722 0.8815
vn 0.4722 0.8815 0.0000
vn -0.8815 -0.4722 0.0000
vn 0.0000 0.8815 0.4722
vn 0.0000 -0.4722 -0.8815
vn -0.4722 -0.8815 0.0000
vn 0.8815 0.4722 0.0000
usemtl Material
s off
f 4/1/1 22/2/1 18/3/1
f 19/4/2 16/5/2 24/6/2
f 9/7/3 23/8/3 11/9/3
f 15/10/4 8/11/4 2/12/4
f 3/13/5 10/14/5 6/15/5
f 34/16/6 46/17/6 32/18/6
f 29/19/7 31/20/7 33/21/7
f 41/22/8 44/23/8 38/24/8
f 40/25/9 39/26/9 47/27/9
f 42/28/10 43/29/10 48/30/10
f 28/31/11 30/32/11 25/33/11
f 37/34/12 36/35/12 45/36/12
f 26/37/13 35/38/13 27/39/13
f 26/37/14 28/40/14 25/41/14
f 25/41/15 31/20/15 29/19/15
f 33/42/16 34/16/16 32/43/16
f 36/35/17 27/44/17 35/45/17
f 39/46/18 41/22/18 38/47/18
f 30/48/19 43/49/19 42/50/19
f 45/51/20 38/47/20 44/52/20
f 44/53/21 32/43/21 46/54/21
f 47/55/22 35/38/22 26/37/22
f 48/30/23 37/34/23 45/36/23
f 46/17/24 42/50/24 48/56/24
f 29/19/25 40/57/25 47/55/25
f 13/58/26 5/59/26 17/60/26
f 22/2/27 25/41/27 18/3/27
f 16/5/28 27/44/28 24/6/28
f 18/3/29 29/19/29 4/1/29
f 17/60/30 31/61/30 30/48/30
f 6/15/31 32/43/31 3/13/31
f 1/62/32 31/61/32 5/59/32
f 20/63/33 35/64/33 23/8/33
f 24/6/34 37/34/34 19/4/34
f 11/9/35 38/47/35 9/7/35
f 7/65/36 40/57/36 10/14/36
f 17/60/37 42/50/37 13/58/37
f 14/66/38 28/31/38 16/5/38
f 21/67/39 44/53/39 8/11/39
f 20/63/40 38/47/40 36/68/40
f 8/11/41 46/54/41 2/12/41
f 3/13/42 41/22/42 7/65/42
f 22/2/43 47/55/43 26/37/43
f 23/8/44 39/46/44 11/9/44
f 15/10/45 45/69/45 21/67/45
f 19/4/46 43/49/46 14/66/46
f 15/10/47 46/54/47 48/70/47
f 13/58/48 34/16/48 1/62/48
f 4/1/49 47/55/49 12/71/49
f 10/14/50 33/42/50 6/15/50
f 4/1/1 12/71/1 22/2/1
f 19/4/2 14/66/2 16/5/2
f 9/7/3 20/63/3 23/8/3
f 15/10/4 21/67/4 8/11/4
f 3/13/5 7/65/5 10/14/5
f 26/37/14 27/39/14 28/40/14
f 25/41/15 30/72/15 31/20/15
f 33/42/16 31/61/16 34/16/16
f 36/35/17 37/34/17 27/44/17
f 39/46/18 40/57/18 41/22/18
f 30/48/19 28/31/19 43/49/19
f 45/51/20 36/68/20 38/47/20
f 44/53/21 41/22/21 32/43/21
f 47/55/22 39/73/22 35/38/22
f 48/30/23 43/49/23 37/34/23
f 46/17/24 34/16/24 42/50/24
f 29/19/25 33/42/25 40/57/25
f 13/58/26 1/62/26 5/59/26
f 22/2/27 26/37/27 25/41/27
f 16/5/28 28/31/28 27/44/28
f 18/3/29 25/41/29 29/19/29
f 17/60/30 5/59/30 31/61/30
f 6/15/31 33/42/31 32/43/31
f 1/62/32 34/16/32 31/61/32
f 20/63/33 36/68/33 35/64/33
f 24/6/34 27/44/34 37/34/34
f 11/9/35 39/46/35 38/47/35
f 7/65/36 41/22/36 40/57/36
f 17/60/37 30/48/37 42/50/37
f 14/66/38 43/49/38 28/31/38
f 21/67/39 45/69/39 44/53/39
f 20/63/40 9/7/40 38/47/40
f 8/11/41 44/53/41 46/54/41
f 3/13/42 32/43/42 41/22/42
f 22/2/43 12/71/43 47/55/43
f 23/8/44 35/64/44 39/46/44
f 15/10/45 48/70/45 45/69/45
f 19/4/46 37/34/46 43/49/46
f 15/10/47 2/12/47 46/54/47
f 13/58/48 42/50/48 34/16/48
f 4/1/49 29/19/49 47/55/49
f 10/14/50 40/57/50 33/42/50
